<svg id="Layer_1" data-name="Layer 1" xmlns="http://www.w3.org/2000/svg" viewBox="0 0 135.47 100.96"><defs><style>.cls-1{fill:#ececec;}.cls-2{fill:#e7e7e7;}.cls-3{fill:#f5f5f5;}.cls-11,.cls-4{fill:#fff;}.cls-5{opacity:0.5;}.cls-6{fill:#f0f0f0;}.cls-7{fill:#e1e1e1;}.cls-8{fill:#007cff;}.cls-9{fill:#1a2e35;}.cls-10{fill:#fafafa;opacity:0.8;}.cls-11{opacity:0.4;}.cls-12{fill:#903c38;}.cls-13{fill:#740606;}.cls-14{opacity:0.3;}.cls-15{opacity:0.2;}.cls-16{fill:#00bcf5;}.cls-17{fill:#f2f2f2;}</style></defs><rect class="cls-1" y="88.72" width="135.47" height="0.07"/><rect class="cls-1" x="21.28" y="90.99" width="8.97" height="0.07"/><rect class="cls-1" x="36.13" y="92.95" width="8.17" height="0.07"/><rect class="cls-1" x="15.4" y="93.51" width="10.36" height="0.07"/><rect class="cls-1" x="117.59" y="93.36" width="4.31" height="0.07"/><rect class="cls-1" x="106.07" y="93.36" width="10.65" height="0.07"/><rect class="cls-1" x="67.74" y="90.96" width="8.22" height="0.07"/><rect class="cls-1" x="77.13" y="90.96" width="19.53" height="0.07"/><path class="cls-1" d="M72.75,114.68H20.43a1.55,1.55,0,0,1-1.55-1.54V39.6a1.55,1.55,0,0,1,1.55-1.55H72.75a1.54,1.54,0,0,1,1.54,1.55v73.54A1.54,1.54,0,0,1,72.75,114.68ZM20.43,38.12A1.48,1.48,0,0,0,19,39.6v73.54a1.48,1.48,0,0,0,1.48,1.48H72.75a1.48,1.48,0,0,0,1.47-1.48V39.6a1.47,1.47,0,0,0-1.47-1.48Z" transform="translate(-8.53 -38.05)"/><path class="cls-1" d="M131.35,114.68H79a1.54,1.54,0,0,1-1.54-1.54V39.6A1.54,1.54,0,0,1,79,38.05h52.32a1.55,1.55,0,0,1,1.55,1.55v73.54A1.55,1.55,0,0,1,131.35,114.68ZM79,38.12a1.48,1.48,0,0,0-1.48,1.48v73.54A1.49,1.49,0,0,0,79,114.62h52.32a1.48,1.48,0,0,0,1.48-1.48V39.6a1.48,1.48,0,0,0-1.48-1.48Z" transform="translate(-8.53 -38.05)"/><rect class="cls-2" x="71.7" y="57.24" width="7.79" height="31.48"/><polygon class="cls-3" points="76.25 88.72 79.49 88.72 79.49 83.29 72.85 83.29 76.25 88.72"/><rect class="cls-2" x="15.4" y="57.24" width="7.79" height="31.48"/><rect class="cls-3" x="20.37" y="57.24" width="59.12" height="29.61"/><path class="cls-1" d="M85.64,104.38H31.28V97.9H85.64Zm-54.09-.27H85.37V98.17H31.55Z" transform="translate(-8.53 -38.05)"/><polygon class="cls-3" points="23.61 88.72 20.37 88.72 20.37 83.29 27.01 83.29 23.61 88.72"/><path class="cls-1" d="M85.64,122.29H31.28V106.86H85.64ZM31.55,122H85.37V107.13H31.55Z" transform="translate(-8.53 -38.05)"/><rect class="cls-2" x="48.9" y="6.39" width="61.61" height="42.66"/><rect class="cls-3" x="50.03" y="6.39" width="61.61" height="42.66"/><rect class="cls-4" x="70.19" y="37" width="38.35" height="57.54" transform="translate(146.6 -61.65) rotate(90)"/><rect class="cls-2" x="98.53" y="65.34" width="38.35" height="0.86" transform="translate(174.95 -89.99) rotate(90)"/><rect class="cls-3" x="50.88" y="11.98" width="59.92" height="1.45"/><g class="cls-5"><rect class="cls-6" x="108.2" y="4.96" width="2.43" height="47.38"/><rect class="cls-6" x="105.11" y="4.96" width="2.43" height="47.38"/><rect class="cls-6" x="102.02" y="4.96" width="2.43" height="47.38"/><rect class="cls-6" x="98.93" y="4.96" width="2.43" height="47.38"/><rect class="cls-6" x="95.84" y="4.96" width="2.43" height="47.38"/><rect class="cls-6" x="92.75" y="4.96" width="2.43" height="47.38"/><rect class="cls-6" x="89.66" y="4.96" width="2.43" height="47.38"/><rect class="cls-6" x="86.57" y="4.96" width="2.43" height="47.38"/><rect class="cls-6" x="83.47" y="4.96" width="2.43" height="47.38"/><rect class="cls-6" x="80.38" y="4.96" width="2.43" height="47.38"/><rect class="cls-6" x="77.29" y="4.96" width="2.43" height="47.38"/><rect class="cls-6" x="74.2" y="4.96" width="2.43" height="47.38"/><rect class="cls-6" x="71.11" y="4.96" width="2.43" height="47.38"/><rect class="cls-6" x="68.02" y="4.96" width="2.43" height="47.38"/><rect class="cls-6" x="64.93" y="4.96" width="2.43" height="47.38"/></g><rect class="cls-6" x="16.89" y="11.48" width="17.86" height="32.47"/><rect class="cls-3" x="18.04" y="11.48" width="20.54" height="32.47"/><rect class="cls-4" x="21.38" y="56.34" width="30.93" height="18.86" transform="translate(-37.45 64.56) rotate(-90)"/><rect class="cls-3" x="26.79" y="61.36" width="20.11" height="8.81" rx="2.76" transform="translate(-37.45 64.56) rotate(-90)"/><path class="cls-1" d="M112.55,76.61l3.65,9c-.11,26,1.07,27.53,1.08,32h-9.22C107.73,95.84,111,100.74,112.55,76.61Z" transform="translate(-8.53 -38.05)"/><path class="cls-1" d="M117.69,103.2C110.27,82.77,93.19,89.1,94,96.54S122,115,117.69,103.2Z" transform="translate(-8.53 -38.05)"/><path class="cls-1" d="M114.89,115c-4-13.16-14.82-11-14.82-5S117.22,122.56,114.89,115Z" transform="translate(-8.53 -38.05)"/><path class="cls-1" d="M114.6,91.22C108.24,73.62,92.41,76,93.69,83.46S118.25,101.34,114.6,91.22Z" transform="translate(-8.53 -38.05)"/><path class="cls-1" d="M114.64,83.32c.59-12-11.28-16.93-10.46-9.76S114.3,90.22,114.64,83.32Z" transform="translate(-8.53 -38.05)"/><path class="cls-1" d="M113.76,95.6c2.5-14.78,17.72-20.4,16-12S112.31,104.1,113.76,95.6Z" transform="translate(-8.53 -38.05)"/><path class="cls-1" d="M112.47,87.25c-3-15.5,10.72-22.38,11.11-14.91S114.17,96.16,112.47,87.25Z" transform="translate(-8.53 -38.05)"/><path class="cls-1" d="M111.29,104.75c6-14.93,19-11.23,17.67-4.43S107.81,113.34,111.29,104.75Z" transform="translate(-8.53 -38.05)"/><path class="cls-1" d="M114.27,115.18c-.13-9.64,8.61-12.13,8.71-6.55S114.35,120.72,114.27,115.18Z" transform="translate(-8.53 -38.05)"/><path class="cls-7" d="M111.6,126.84h0a10.07,10.07,0,0,1-9.85-7.87,20.31,20.31,0,0,0-1-3.52l-.07-.19h21.9l-.08.19a21.2,21.2,0,0,0-1,3.52A10.07,10.07,0,0,1,111.6,126.84Z" transform="translate(-8.53 -38.05)"/><ellipse id="_Path_" data-name="&lt;Path&gt;" class="cls-3" cx="67.74" cy="97.89" rx="52.53" ry="3.07"/><path class="cls-8" d="M43.58,81.13l-.17-.21a18.78,18.78,0,0,1,2.22-1.55l.14.23A17.52,17.52,0,0,0,43.58,81.13Z" transform="translate(-8.53 -38.05)"/><path class="cls-8" d="M38,88.87l-.26-.1A18.68,18.68,0,0,1,42,82.18l.19.19A18.28,18.28,0,0,0,38,88.87Z" transform="translate(-8.53 -38.05)"/><path class="cls-8" d="M90.51,100.81A14.44,14.44,0,0,0,70.67,87.55,17.44,17.44,0,0,0,38,91.41a15,15,0,0,0,1,30H86.72a10.64,10.64,0,0,0,3.79-20.59Z" transform="translate(-8.53 -38.05)"/><path class="cls-9" d="M79.76,96H41.53a1.18,1.18,0,0,1-1.17-1.18h0a1.18,1.18,0,0,1,1.17-1.17H79.76a1.18,1.18,0,0,1,1.18,1.17h0A1.18,1.18,0,0,1,79.76,96Z" transform="translate(-8.53 -38.05)"/><polygon class="cls-8" points="72.33 35.13 67.26 56.73 37.01 56.73 45.47 20.68 66.41 25.6 72.33 35.13"/><polygon class="cls-10" points="72.33 35.13 67.26 56.73 37.01 56.73 45.47 20.68 66.41 25.6 72.33 35.13"/><path class="cls-8" d="M76.91,77.2l-23-5.39a.62.62,0,0,1-.46-.74h0a.62.62,0,0,1,.74-.46l23,5.39a.62.62,0,0,1,.46.74h0A.62.62,0,0,1,76.91,77.2Z" transform="translate(-8.53 -38.05)"/><path class="cls-8" d="M76,80.94l-23-5.39a.62.62,0,0,1-.46-.74h0a.62.62,0,0,1,.74-.46l23,5.39a.62.62,0,0,1,.46.74h0A.62.62,0,0,1,76,80.94Z" transform="translate(-8.53 -38.05)"/><path class="cls-8" d="M75.16,84.68l-23-5.39a.61.61,0,0,1-.45-.74h0a.61.61,0,0,1,.73-.46l23,5.39a.61.61,0,0,1,.45.74h0A.61.61,0,0,1,75.16,84.68Z" transform="translate(-8.53 -38.05)"/><path class="cls-8" d="M74.28,88.41,51.31,83a.61.61,0,0,1-.46-.73h0a.62.62,0,0,1,.74-.46l23,5.39A.62.62,0,0,1,75,88h0A.61.61,0,0,1,74.28,88.41Z" transform="translate(-8.53 -38.05)"/><path class="cls-8" d="M64.27,90,50.43,86.76A.61.61,0,0,1,50,86h0a.61.61,0,0,1,.74-.45l13.84,3.24a.62.62,0,0,1,.46.74h0A.62.62,0,0,1,64.27,90Z" transform="translate(-8.53 -38.05)"/><polygon class="cls-8" points="72.33 35.13 64.6 33.32 66.41 25.6 72.33 35.13"/><path class="cls-9" d="M86,93.7l-6.42,42.24h1.27l.85-5.59H98.1l-.85,5.59h1.27l6.42-42.24Zm12.23,35.53H81.91l.91-6H99.18Zm1.08-7.11H83l.91-6h16.36Zm1.08-7.12H84.07l.91-6h16.36Zm1.08-7.11H85.15l.91-6h16.36Zm-15.28-7.11.92-6H103.5l-.91,6Z" transform="translate(-8.53 -38.05)"/><path class="cls-9" d="M107.58,93.7H88.68l6.43,42.24h1.26l-.85-5.59h16.36l.85,5.59H114ZM90.12,94.78h16.36l.91,6H91Zm1.08,7.12h16.36l.91,6H92.11ZM92.28,109h16.36l.91,6H93.19Zm1.08,7.11h16.36l.91,6H94.27Zm2,13.11-.91-6H110.8l.91,6Z" transform="translate(-8.53 -38.05)"/><path class="cls-11" d="M107.58,93.7H88.68l6.43,42.24h1.26l-.85-5.59h16.36l.85,5.59H114ZM90.12,94.78h16.36l.91,6H91Zm1.08,7.12h16.36l.91,6H92.11ZM92.28,109h16.36l.91,6H93.19Zm1.08,7.11h16.36l.91,6H94.27Zm2,13.11-.91-6H110.8l.91,6Z" transform="translate(-8.53 -38.05)"/><path class="cls-12" d="M99.48,52.58c.55.42,1,.83,1.52,1.27s1,.88,1.43,1.33a30,30,0,0,1,2.64,3l.3.41.16.2c.08.12.16.26.23.38a3.52,3.52,0,0,1,.37,1.4,7.18,7.18,0,0,1-.23,2.24,15.32,15.32,0,0,1-1.5,3.74L103,66a26.9,26.9,0,0,0,.58-3.56,5.47,5.47,0,0,0,0-1.54.86.86,0,0,0-.16-.41l0,0-.15-.17-.29-.33c-.8-.88-1.67-1.74-2.58-2.56s-1.84-1.65-2.75-2.42Z" transform="translate(-8.53 -38.05)"/><path class="cls-12" d="M103.56,65.39,102,66.46l1.9,1.15s1-.94.56-1.81Z" transform="translate(-8.53 -38.05)"/><polygon class="cls-12" points="92.7 30.2 94.14 31.01 95.39 29.56 93.48 28.41 92.7 30.2"/><path class="cls-9" d="M88.88,46.92c0,.17,0,.34-.13.37s-.24-.09-.29-.27,0-.34.13-.37S88.83,46.74,88.88,46.92Z" transform="translate(-8.53 -38.05)"/><path class="cls-13" d="M88.88,47.25A6.6,6.6,0,0,1,88.43,49a1,1,0,0,0,.87-.06Z" transform="translate(-8.53 -38.05)"/><path class="cls-9" d="M89.25,45.79h-.07a.8.8,0,0,0-.76.06.11.11,0,0,1-.15,0,.12.12,0,0,1,0-.15,1.06,1.06,0,0,1,1-.07.1.1,0,0,1,.06.13A.1.1,0,0,1,89.25,45.79Z" transform="translate(-8.53 -38.05)"/><path class="cls-12" d="M94.43,47.41c.25,1.65.61,4.18,2.06,4.83,0,0,.14,1.71-2.73,2.75-3.15,1.13-2.07-1-2.07-1,1.58-1,1.07-2.29.34-3.38Z" transform="translate(-8.53 -38.05)"/><path class="cls-9" d="M96.76,51.89c0-.52-.53-1.41-1.06-1.35a9.87,9.87,0,0,0-3.65,1.65c-.82.75-.24,2.08-.24,2.08Z" transform="translate(-8.53 -38.05)"/><path class="cls-8" d="M114.06,114.52c-.14.15-.3.27-.43.25s-.12,0-.15-.15a.21.21,0,0,1,0-.19c.15-.25.8-.38.83-.39s0,0,0,0a0,0,0,0,1,0,0A2.6,2.6,0,0,1,114.06,114.52Zm-.44-.08s0,0,0,0a.11.11,0,0,0,0,.11c0,.08.06.09.08.09s.42-.27.59-.52A1.47,1.47,0,0,0,113.62,114.44Z" transform="translate(-8.53 -38.05)"/><path class="cls-8" d="M114.38,114.12h0c-.23.07-.82.05-1-.13a.15.15,0,0,1,0-.19.25.25,0,0,1,.18-.11c.3,0,.74.33.76.35a0,0,0,0,1,0,0S114.38,114.11,114.38,114.12Zm-.86-.27h0s0,.07,0,.09a1.15,1.15,0,0,0,.74.11,1.05,1.05,0,0,0-.61-.26A.12.12,0,0,0,113.52,113.85Z" transform="translate(-8.53 -38.05)"/><path class="cls-8" d="M97.67,120.19c-.25,0-.5,0-.58-.15a.19.19,0,0,1,0-.21.22.22,0,0,1,.15-.11c.33-.09,1,.31,1.06.32a.08.08,0,0,1,0,0,0,0,0,0,1,0,0A3.88,3.88,0,0,1,97.67,120.19Zm-.31-.39h-.09a.13.13,0,0,0-.1.07.09.09,0,0,0,0,.1c.1.13.6.13,1,.08A2,2,0,0,0,97.36,119.8Z" transform="translate(-8.53 -38.05)"/><path class="cls-8" d="M98.27,120.13h0c-.24-.11-.71-.54-.68-.77,0,0,.05-.12.18-.13a.35.35,0,0,1,.26.08,1.38,1.38,0,0,1,.31.77.05.05,0,0,1,0,0Zm-.48-.81h0c-.09,0-.09.05-.09.06s.3.47.54.62a1.06,1.06,0,0,0-.26-.62A.25.25,0,0,0,97.79,119.32Z" transform="translate(-8.53 -38.05)"/><polygon class="cls-12" points="91.93 82.03 89.94 82.03 89.74 77.42 91.73 77.42 91.93 82.03"/><polygon class="cls-12" points="107.88 75.28 106.04 75.95 103.7 71.82 105.54 71.15 107.88 75.28"/><path class="cls-9" d="M114.28,113.82l1.55-1.61a.18.18,0,0,1,.22,0l1.54.95a.29.29,0,0,1,.06.46c-.56.55-.85.79-1.54,1.5-.42.43-1.67,1.91-2.25,2.51s-1.25.1-1.07-.2a8.21,8.21,0,0,0,1.35-3.26A.52.52,0,0,1,114.28,113.82Z" transform="translate(-8.53 -38.05)"/><path class="cls-9" d="M98.48,119.85h2.18a.18.18,0,0,1,.17.14l.39,1.77a.29.29,0,0,1-.29.35c-.78,0-1.91-.06-2.9-.06-1.15,0-1.65.07-3,.07-.81,0-1-.83-.7-.91A9.55,9.55,0,0,0,98,120,.88.88,0,0,1,98.48,119.85Z" transform="translate(-8.53 -38.05)"/><path class="cls-12" d="M93.08,56.53c-.31.77-.63,1.49-1,2.23s-.69,1.45-1.06,2.17a33.67,33.67,0,0,1-2.56,4.22c-.26.34-.53.68-.82,1-.15.17-.31.33-.48.51a4.75,4.75,0,0,1-.68.52,8,8,0,0,1-1.25.62,12.45,12.45,0,0,1-1.21.42,25.12,25.12,0,0,1-4.81.89l-.3-1.46c1.44-.52,2.92-1.07,4.28-1.68.33-.15.66-.31,1-.48A5.54,5.54,0,0,0,85,65a2.8,2.8,0,0,0,.24-.23c.09-.11.21-.24.31-.37s.41-.56.61-.87c.4-.6.78-1.25,1.14-1.92s.71-1.34,1-2c.67-1.37,1.32-2.8,1.93-4.18Z" transform="translate(-8.53 -38.05)"/><path class="cls-8" d="M97.62,51.39c2.86-.22,5.42,4,5.42,4L101,58.73a14.55,14.55,0,0,1-4.06-2.42C95,54.63,95.67,51.54,97.62,51.39Z" transform="translate(-8.53 -38.05)"/><path class="cls-14" d="M97.44,55l3,4-.14.17s-1-.82-2.23-2Z" transform="translate(-8.53 -38.05)"/><path class="cls-8" d="M89.7,54.55c-.16,1.39,2.18,7.56,2.72,14.88l10.59-1a129.47,129.47,0,0,0-2.25-14c-.39-1.84-1.82-3.26-3.66-2.89h0a38.43,38.43,0,0,0-4.39,1.13,18.65,18.65,0,0,0-2.37,1.05A1.08,1.08,0,0,0,89.7,54.55Z" transform="translate(-8.53 -38.05)"/><path class="cls-14" d="M90.77,59.67c.18.75.37,1.55.55,2.41,1.62-.38,1.3-3.95,1.34-4Z" transform="translate(-8.53 -38.05)"/><path class="cls-8" d="M93.15,55.24C94,58,91,61.74,91,61.74l-3-2a11.94,11.94,0,0,1,.94-4.55C90.1,52.72,92.57,53.25,93.15,55.24Z" transform="translate(-8.53 -38.05)"/><path class="cls-12" d="M79,67.4l-1.22-.16,0,2.54a3.13,3.13,0,0,0,2.55-1l-.18-.48A1.49,1.49,0,0,0,79,67.4Z" transform="translate(-8.53 -38.05)"/><polygon class="cls-12" points="67.15 29.77 67.93 31.84 69.26 31.73 69.24 29.19 67.15 29.77"/><polygon class="cls-15" points="89.75 77.43 89.86 80.02 91.85 80.02 91.74 77.43 89.75 77.43"/><polygon class="cls-15" points="105.54 71.15 103.7 71.82 105 74.11 106.75 73.28 105.54 71.15"/><path class="cls-12" d="M94.62,45.05c.42,2.18.78,3.44,0,4.82a3,3,0,0,1-5.18-.24c-1-1.81-1.49-5.08.4-6.48A3,3,0,0,1,94.62,45.05Z" transform="translate(-8.53 -38.05)"/><path class="cls-9" d="M90.94,46.51c-1.33.66-1.36-1.47-1.25-1.92a2,2,0,0,1-2.41.44c-1.51-.65-1.08-2.36,0-2.34a1.09,1.09,0,0,1,1-1.71,6,6,0,0,1,2.15.33,1.57,1.57,0,0,1,2.26-.89,4.88,4.88,0,0,1,1.53,1.75s3.45.51,1.58,2.32a6.76,6.76,0,0,1-.9,5.23C94.39,50.28,90.29,50.12,90.94,46.51Z" transform="translate(-8.53 -38.05)"/><path class="cls-9" d="M93.59,43.05a5.45,5.45,0,0,0,.68-2.85C95.73,41.78,93.59,43.05,93.59,43.05Z" transform="translate(-8.53 -38.05)"/><path class="cls-12" d="M91.59,46.38A2.52,2.52,0,0,1,91.18,48c-.41.6-1,.34-1.14-.3s-.15-1.57.4-1.95S91.53,45.72,91.59,46.38Z" transform="translate(-8.53 -38.05)"/><path class="cls-9" d="M96.17,69.06S99.91,84,101.71,89.53c2,6.08,10.47,22,10.47,22l3.34-1.45s-6.44-14.52-7.82-20.59C106.21,82.92,103,68.39,103,68.39Z" transform="translate(-8.53 -38.05)"/><path class="cls-8" d="M111.19,110.45s1.1,1.57,1.1,1.57l3.75-1.66-.76-1.55Z" transform="translate(-8.53 -38.05)"/><path class="cls-14" d="M98.13,74.32c2.65.25,3.32,10,3.5,15-1.09-3.45-2.86-10.12-4.08-14.86A.85.85,0,0,1,98.13,74.32Z" transform="translate(-8.53 -38.05)"/><path class="cls-9" d="M92.42,69.43s.43,15.32,1.24,21.34c.84,6.26,4,26.29,4,26.29H101s-.78-20.22-1.24-26.41c-.5-6.74-.37-21.9-.37-21.9Z" transform="translate(-8.53 -38.05)"/><path class="cls-8" d="M96.94,115.47s.27,2,.27,2l4.1-.15,0-1.9Z" transform="translate(-8.53 -38.05)"/><path class="cls-16" d="M48.54,113.22a2,2,0,0,1-2-2v-8.09a2,2,0,0,1,2-2h4.37a2,2,0,0,1,2,2V104a1.94,1.94,0,0,1-.56,1.38,2,2,0,0,1,.38,1.17v.87a2,2,0,0,1-.47,1.29,2,2,0,0,1,.83,1.62v.88a2,2,0,0,1-2,2Z" transform="translate(-8.53 -38.05)"/><path class="cls-16" d="M52.73,107.43H49.59v2.91h3.5v.88H48.54v-8.09h4.37V104H49.59v2.55h3.14Z" transform="translate(-8.53 -38.05)"/><path class="cls-16" d="M54.45,113.22a2,2,0,0,1-2-2v-8a2,2,0,0,1,1.67-2,13.33,13.33,0,0,1,2.33-.19,5.18,5.18,0,0,1,3.6,1.19,4.1,4.1,0,0,1,1.37,3.18,4.37,4.37,0,0,1-1.18,3.12A4.89,4.89,0,0,1,57.49,110v1.27a2,2,0,0,1-2,2Z" transform="translate(-8.53 -38.05)"/><path class="cls-16" d="M54.45,103.23a12.38,12.38,0,0,1,2-.16,3.29,3.29,0,0,1,2.27.68,2.17,2.17,0,0,1,.7,1.69,2.35,2.35,0,0,1-.62,1.72,3.34,3.34,0,0,1-2.47.89,3.61,3.61,0,0,1-.84-.07v3.24h-1Zm1,3.9a3.54,3.54,0,0,0,.86.08c1.26,0,2-.61,2-1.73s-.75-1.58-1.91-1.58a5,5,0,0,0-1,.08Z" transform="translate(-8.53 -38.05)"/><path class="cls-16" d="M64.86,113.22A2,2,0,0,1,63,111.86l-.4-1.17-.38,1.15a2,2,0,0,1-1.9,1.38H59.21a2,2,0,0,1-1.89-2.65l2.74-8.08a2,2,0,0,1,1.9-1.36h1.26a2,2,0,0,1,1.89,1.36l2.76,8.08A2,2,0,0,1,66,113.22Z" transform="translate(-8.53 -38.05)"/><path class="cls-16" d="M61.13,108.67l-.84,2.55H59.21L62,103.13h1.26L66,111.22H64.86L64,108.67Zm2.65-.81L63,105.53c-.18-.53-.3-1-.42-1.47h0c-.12.48-.26,1-.41,1.46l-.79,2.34Z" transform="translate(-8.53 -38.05)"/><path class="cls-16" d="M68.82,113.34a6.2,6.2,0,0,1-3.17-.85,2,2,0,0,1-.81-2.24l.27-.88a2,2,0,0,1,1.09-1.25,3.85,3.85,0,0,1-1.27-2.92,4.32,4.32,0,0,1,4.61-4.2,5.58,5.58,0,0,1,2.78.66,2,2,0,0,1,.9,2.38l-.28.85a2,2,0,0,1-.71,1A4,4,0,0,1,73.65,109C73.65,111.09,72.14,113.34,68.82,113.34Z" transform="translate(-8.53 -38.05)"/><path class="cls-16" d="M67,110a3.78,3.78,0,0,0,1.87.52c1.07,0,1.7-.56,1.7-1.38s-.44-1.18-1.53-1.6c-1.32-.47-2.13-1.15-2.13-2.29a2.33,2.33,0,0,1,2.61-2.2,3.6,3.6,0,0,1,1.79.4l-.29.85a3.12,3.12,0,0,0-1.53-.38c-1.11,0-1.53.65-1.53,1.21,0,.75.49,1.12,1.61,1.56,1.37.52,2.06,1.18,2.06,2.37s-.92,2.33-2.83,2.33a4.13,4.13,0,0,1-2.06-.52Z" transform="translate(-8.53 -38.05)"/><path class="cls-17" d="M52.52,107.37H49.37v2.92h3.51v.87H48.33v-8.08H52.7V104H49.37v2.55h3.15Z" transform="translate(-8.53 -38.05)"/><path class="cls-17" d="M54.23,103.18a11.55,11.55,0,0,1,2-.16,3.31,3.31,0,0,1,2.26.67,2.16,2.16,0,0,1,.71,1.69,2.36,2.36,0,0,1-.62,1.73,3.34,3.34,0,0,1-2.47.89,3.61,3.61,0,0,1-.84-.07v3.23H54.23Zm1.05,3.89a3.43,3.43,0,0,0,.86.09c1.26,0,2-.61,2-1.73s-.76-1.58-1.91-1.58a4.32,4.32,0,0,0-1,.08Z" transform="translate(-8.53 -38.05)"/><path class="cls-17" d="M60.92,108.62l-.84,2.54H59l2.75-8.08H63l2.76,8.08H64.65l-.87-2.54Zm2.65-.81-.79-2.33c-.18-.53-.3-1-.42-1.48h0c-.12.48-.25,1-.41,1.47l-.79,2.34Z" transform="translate(-8.53 -38.05)"/><path class="cls-17" d="M66.81,109.89a3.68,3.68,0,0,0,1.87.53c1.07,0,1.69-.56,1.69-1.38s-.43-1.19-1.52-1.61c-1.32-.46-2.14-1.15-2.14-2.29A2.33,2.33,0,0,1,69.33,103a3.73,3.73,0,0,1,1.79.39l-.29.86a3.19,3.19,0,0,0-1.54-.39c-1.1,0-1.52.66-1.52,1.21,0,.76.49,1.13,1.61,1.56,1.36.53,2.06,1.19,2.06,2.38s-.92,2.32-2.83,2.32a4.14,4.14,0,0,1-2.06-.51Z" transform="translate(-8.53 -38.05)"/></svg>